<svg width="437.7780517578125px" height="124.39999999999999px" xmlns="http://www.w3.org/2000/svg" viewBox="31.11097412109376 12.800000000000004 437.7780517578125 124.39999999999999" style="background:#f2eddb" preserveAspectRatio="xMidYMid"><defs><filter id="editing-vintage" x="-100%" y="-100%" width="300%" height="300%"><feConvolveMatrix in="SourceGraphic" result="extrude" order="9,9" divisor="1" kernelMatrix="1,0,0,0,0,0,0,0,0,0,1,0,0,0,0,0,0,0,0,0,1,0,0,0,0,0,0,0,0,0,1,0,0,0,0,0,0,0,0,0,1,0,0,0,0,0,0,0,0,0,1,0,0,0,0,0,0,0,0,0,1,0,0,0,0,0,0,0,0,0,1,0,0,0,0,0,0,0,0,0,1"> </feConvolveMatrix><feFlood flood-color="#900" result="flood-extrude"></feFlood><feComposite operator="in" in="flood-extrude" in2="extrude" result="extrude-color"></feComposite><feOffset dx="5" dy="5" in="extrude-color" result="extrude-offset"></feOffset><feColorMatrix in="SourceGraphic" result="stroke" type="matrix" values="0 0 0 0 0 0 0 0 0 0 0 0 0 0 0 0 1 0 0 0 "></feColorMatrix><feColorMatrix in="SourceGraphic" result="fill" type="matrix" values="0 0 0 0 0 0 0 0 0 0 0 0 0 0 0 1 0 0 1 0 "></feColorMatrix><feConvolveMatrix in="stroke" result="inner-shadow" order="5,5" divisor="1" kernelMatrix="1 0 0 0 0 0 1 0 0 0 0 0 1 0 0 0 0 0 1 0 0 0 0 0 1 "></feConvolveMatrix><feOffset dx="1" dy="1" in="inner-shadow" result="offset"></feOffset><feComposite operator="in" in="offset" in2="SourceAlpha" result="comp"></feComposite><feFlood flood-color="#000" result="flood3"></feFlood><feComposite operator="in" in="flood3" in2="comp" result="comp2"></feComposite><feColorMatrix in="comp2" result="comp3" type="matrix" values="1 0 0 0 0 0 1 0 0 0 0 0 1 0 0 0 0 0 0.5 0 "></feColorMatrix><feFlood flood-color="#f00" result="flood1"></feFlood><feComposite operator="in" in="flood1" in2="fill" result="fill2"></feComposite><feFlood flood-color="#fff" result="flood2"></feFlood><feComposite operator="in" in="flood2" in2="stroke" result="stroke2"></feComposite><feMerge result="obj"><feMergeNode in="extrude-offset"></feMergeNode><feMergeNode in="fill2"></feMergeNode><feMergeNode in="comp3"></feMergeNode></feMerge><feConvolveMatrix in="SourceAlpha" result="shadow" order="9,9" divisor="1" kernelMatrix="1,0,0,0,0,0,0,0,0,0,1,0,0,0,0,0,0,0,0,0,1,0,0,0,0,0,0,0,0,0,1,0,0,0,0,0,0,0,0,0,1,0,0,0,0,0,0,0,0,0,1,0,0,0,0,0,0,0,0,0,1,0,0,0,0,0,0,0,0,0,1,0,0,0,0,0,0,0,0,0,1"></feConvolveMatrix><feOffset dx="15" dy="15" in="shadow" result="shadow-offset"></feOffset><feFlood flood-color="#444" result="flood-shadow"></feFlood><feComposite operator="in" in="flood-shadow" in2="shadow-offset" result="shadow-color"></feComposite><feMerge><feMergeNode in="shadow-color"></feMergeNode><feMergeNode in="obj"></feMergeNode></feMerge></filter></defs><g transform="translate(-9,-9)"><g filter="url(#editing-vintage)"><g transform="translate(95.21497249603271, 97.78500366210938)"><path d="M34.37-31.68L34.37-31.68Q34.37-26.94 31.42-23.84L31.42-23.84L31.42-23.84Q28.48-20.74 23.62-19.52L23.62-19.52L36.74 0L30.08 0L17.98-18.88L12.03-18.88L12.03 0L6.53 0L6.53-44.10L17.79-44.10L17.79-44.10Q25.98-44.10 30.18-40.96L30.18-40.96L30.18-40.96Q34.37-37.82 34.37-31.68L34.37-31.68ZM28.48-31.68L28.48-31.68Q28.48-35.90 26.05-37.76L26.05-37.76L26.05-37.76Q23.62-39.62 18.43-39.62L18.43-39.62L12.03-39.62L12.03-23.23L18.50-23.23L18.50-23.23Q23.42-23.23 25.95-25.25L25.95-25.25L25.95-25.25Q28.48-27.26 28.48-31.68L28.48-31.68ZM49.09-14.98L49.09-14.98Q49.28-9.41 52-6.59L52-6.59L52-6.59Q54.72-3.78 58.88-3.78L58.88-3.78L58.88-3.78Q61.38-3.78 63.46-4.51L63.46-4.51L63.46-4.51Q65.54-5.25 67.90-6.78L67.90-6.78L70.40-3.20L70.40-3.20Q68.03-1.34 64.99-0.32L64.99-0.32L64.99-0.32Q61.95 0.70 58.88 0.70L58.88 0.70L58.88 0.70Q51.58 0.70 47.52-4.06L47.52-4.06L47.52-4.06Q43.46-8.83 43.46-16.83L43.46-16.83L43.46-16.83Q43.46-21.89 45.25-25.89L45.25-25.89L45.25-25.89Q47.04-29.89 50.37-32.16L50.37-32.16L50.37-32.16Q53.70-34.43 58.11-34.43L58.11-34.43L58.11-34.43Q64.51-34.43 68.19-29.98L68.19-29.98L68.19-29.98Q71.87-25.54 71.87-17.86L71.87-17.86L71.87-17.86Q71.87-16.38 71.74-14.98L71.74-14.98L49.09-14.98ZM58.18-30.02L58.18-30.02Q54.27-30.02 51.84-27.23L51.84-27.23L51.84-27.23Q49.41-24.45 49.09-19.07L49.09-19.07L66.62-19.07L66.62-19.07Q66.56-24.38 64.32-27.20L64.32-27.20L64.32-27.20Q62.08-30.02 58.18-30.02L58.18-30.02ZM107.39-7.36L107.39-7.36Q107.39-5.38 108.03-4.45L108.03-4.45L108.03-4.45Q108.67-3.52 110.14-3.07L110.14-3.07L108.80 0.77L108.80 0.77Q103.87 0.13 102.66-4.03L102.66-4.03L102.66-4.03Q100.86-1.73 98.14-0.51L98.14-0.51L98.14-0.51Q95.42 0.70 92.10 0.70L92.10 0.70L92.10 0.70Q87.04 0.70 84.13-2.11L84.13-2.11L84.13-2.11Q81.22-4.93 81.22-9.66L81.22-9.66L81.22-9.66Q81.22-14.85 85.28-17.66L85.28-17.66L85.28-17.66Q89.34-20.48 96.96-20.48L96.96-20.48L101.95-20.48L101.95-23.23L101.95-23.23Q101.95-26.82 99.90-28.38L99.90-28.38L99.90-28.38Q97.86-29.95 93.95-29.95L93.95-29.95L93.95-29.95Q90.11-29.95 85.18-28.22L85.18-28.22L83.71-32.32L83.71-32.32Q89.66-34.43 94.78-34.43L94.78-34.43L94.78-34.43Q100.93-34.43 104.16-31.55L104.16-31.55L104.16-31.55Q107.39-28.67 107.39-23.55L107.39-23.55L107.39-7.36ZM93.44-3.33L93.44-3.33Q95.94-3.33 98.21-4.61L98.21-4.61L98.21-4.61Q100.48-5.89 101.95-8.13L101.95-8.13L101.95-16.77L97.09-16.77L97.09-16.77Q91.71-16.77 89.34-14.98L89.34-14.98L89.34-14.98Q86.98-13.18 86.98-9.73L86.98-9.73L86.98-9.73Q86.98-3.33 93.44-3.33L93.44-3.33ZM136.90-3.90L136.90-3.90Q141.31-3.90 145.66-6.85L145.66-6.85L148.22-3.33L148.22-3.33Q146.11-1.47 142.98-0.38L142.98-0.38L142.98-0.38Q139.84 0.70 136.90 0.70L136.90 0.70L136.90 0.70Q129.41 0.70 125.22-4L125.22-4L125.22-4Q121.02-8.70 121.02-16.70L121.02-16.70L121.02-16.70Q121.02-21.76 122.91-25.79L122.91-25.79L122.91-25.79Q124.80-29.82 128.38-32.13L128.38-32.13L128.38-32.13Q131.97-34.43 136.90-34.43L136.90-34.43L136.90-34.43Q143.42-34.43 148.16-30.46L148.16-30.46L145.54-26.94L145.54-26.94Q141.12-29.89 136.83-29.89L136.83-29.89L136.83-29.89Q132.29-29.89 129.57-26.53L129.57-26.53L129.57-26.53Q126.85-23.17 126.85-16.70L126.85-16.70L126.85-16.70Q126.85-10.24 129.57-7.07L129.57-7.07L129.57-7.07Q132.29-3.90 136.90-3.90L136.90-3.90ZM186.82-1.73L186.82-1.73Q185.09-0.58 182.62 0.06L182.62 0.06L182.62 0.06Q180.16 0.70 177.73 0.70L177.73 0.70L177.73 0.70Q172.42 0.70 169.41-2.08L169.41-2.08L169.41-2.08Q166.40-4.86 166.40-9.41L166.40-9.41L166.40-29.50L158.66-29.50L158.66-33.73L166.40-33.73L166.40-41.34L171.78-41.98L171.78-33.73L183.49-33.73L182.78-29.50L171.78-29.50L171.78-9.47L171.78-9.47Q171.78-6.59 173.31-5.18L173.31-5.18L173.31-5.18Q174.85-3.78 178.24-3.78L178.24-3.78L178.24-3.78Q181.70-3.78 184.70-5.38L184.70-5.38L186.82-1.73ZM254.34-4.35L263.49-4.35L263.49 0L238.08 0L238.08-4.35L248.90-4.35L248.90-38.21L238.85-32.13L236.48-35.90L249.60-44.10L254.34-44.10L254.34-4.35ZM301.18-33.60L301.18-33.60Q301.18-30.46 299.26-28.10L299.26-28.10L299.26-28.10Q297.34-25.73 293.57-23.62L293.57-23.62L293.57-23.62Q298.05-21.76 300.54-18.75L300.54-18.75L300.54-18.75Q303.04-15.74 303.04-11.84L303.04-11.84L303.04-11.84Q303.04-8.26 301.18-5.38L301.18-5.38L301.18-5.38Q299.33-2.50 295.87-0.90L295.87-0.90L295.87-0.90Q292.42 0.70 287.87 0.70L287.87 0.70L287.87 0.70Q283.26 0.70 279.87-0.93L279.87-0.93L279.87-0.93Q276.48-2.56 274.72-5.38L274.72-5.38L274.72-5.38Q272.96-8.19 272.96-11.71L272.96-11.71L272.96-11.71Q272.96-19.07 281.86-23.23L281.86-23.23L281.86-23.23Q278.21-24.96 276.51-27.30L276.51-27.30L276.51-27.30Q274.82-29.63 274.82-33.28L274.82-33.28L274.82-33.28Q274.82-37.06 276.80-39.68L276.80-39.68L276.80-39.68Q278.78-42.30 281.82-43.55L281.82-43.55L281.82-43.55Q284.86-44.80 288-44.80L288-44.80L288-44.80Q291.39-44.80 294.40-43.58L294.40-43.58L294.40-43.58Q297.41-42.37 299.30-39.84L299.30-39.84L299.30-39.84Q301.18-37.31 301.18-33.60L301.18-33.60ZM280.06-33.22L280.06-33.22Q280.06-30.78 281.18-29.34L281.18-29.34L281.18-29.34Q282.30-27.90 284.16-27.04L284.16-27.04L284.16-27.04Q286.02-26.18 289.79-24.96L289.79-24.96L289.79-24.96Q293.06-26.88 294.50-28.70L294.50-28.70L294.50-28.70Q295.94-30.53 295.94-33.34L295.94-33.34L295.94-33.34Q295.94-36.67 293.86-38.62L293.86-38.62L293.86-38.62Q291.78-40.58 288-40.58L288-40.58L288-40.58Q284.22-40.58 282.14-38.66L282.14-38.66L282.14-38.66Q280.06-36.74 280.06-33.22L280.06-33.22ZM297.34-11.71L297.34-11.71Q297.34-14.53 295.94-16.29L295.94-16.29L295.94-16.29Q294.53-18.05 292.26-19.07L292.26-19.07L292.26-19.07Q289.98-20.10 285.50-21.70L285.50-21.70L285.50-21.70Q278.66-18.50 278.66-11.71L278.66-11.71L278.66-11.71Q278.66-7.94 281.02-5.79L281.02-5.79L281.02-5.79Q283.39-3.65 287.87-3.65L287.87-3.65L287.87-3.65Q292.35-3.65 294.85-5.89L294.85-5.89L294.85-5.89Q297.34-8.13 297.34-11.71L297.34-11.71Z" fill="#f00" stroke="#0f0" stroke-width="1.8"></path></g></g><g><g transform="translate(95.2150411605835, 97.78500366210938)"><path d="M34.37-31.68L34.37-31.68Q34.37-26.94 31.42-23.84L31.42-23.84L31.42-23.84Q28.48-20.74 23.62-19.52L23.62-19.52L36.74 0L30.08 0L17.98-18.88L12.03-18.88L12.03 0L6.53 0L6.53-44.10L17.79-44.10L17.79-44.10Q25.98-44.10 30.18-40.96L30.18-40.96L30.18-40.96Q34.37-37.82 34.37-31.68L34.37-31.68ZM28.48-31.68L28.48-31.68Q28.48-35.90 26.05-37.76L26.05-37.76L26.05-37.76Q23.62-39.62 18.43-39.62L18.43-39.62L12.03-39.62L12.03-23.23L18.50-23.23L18.50-23.23Q23.42-23.23 25.95-25.25L25.95-25.25L25.95-25.25Q28.48-27.26 28.48-31.68L28.48-31.68ZM49.09-14.98L49.09-14.98Q49.28-9.41 52-6.59L52-6.59L52-6.59Q54.72-3.78 58.88-3.78L58.88-3.78L58.88-3.78Q61.38-3.78 63.46-4.51L63.46-4.51L63.46-4.51Q65.54-5.25 67.90-6.78L67.90-6.78L70.40-3.20L70.40-3.20Q68.03-1.34 64.99-0.32L64.99-0.32L64.99-0.32Q61.95 0.70 58.88 0.70L58.88 0.70L58.88 0.70Q51.58 0.70 47.52-4.06L47.52-4.06L47.52-4.06Q43.46-8.83 43.46-16.83L43.46-16.83L43.46-16.83Q43.46-21.89 45.25-25.89L45.25-25.89L45.25-25.89Q47.04-29.89 50.37-32.16L50.37-32.16L50.37-32.16Q53.70-34.43 58.11-34.43L58.11-34.43L58.11-34.43Q64.51-34.43 68.19-29.98L68.19-29.98L68.19-29.98Q71.87-25.54 71.87-17.86L71.87-17.86L71.87-17.86Q71.87-16.38 71.74-14.98L71.74-14.98L49.09-14.98ZM58.18-30.02L58.18-30.02Q54.27-30.02 51.84-27.23L51.84-27.23L51.84-27.23Q49.41-24.45 49.09-19.07L49.09-19.07L66.62-19.07L66.62-19.07Q66.56-24.38 64.32-27.20L64.32-27.20L64.32-27.20Q62.08-30.02 58.18-30.02L58.18-30.02ZM107.39-7.36L107.39-7.36Q107.39-5.38 108.03-4.45L108.03-4.45L108.03-4.45Q108.67-3.52 110.14-3.07L110.14-3.07L108.80 0.77L108.80 0.77Q103.87 0.13 102.66-4.03L102.66-4.03L102.66-4.03Q100.86-1.73 98.14-0.51L98.14-0.51L98.14-0.51Q95.42 0.70 92.10 0.70L92.10 0.70L92.10 0.70Q87.04 0.70 84.13-2.11L84.13-2.11L84.13-2.11Q81.22-4.93 81.22-9.66L81.22-9.66L81.22-9.66Q81.22-14.85 85.28-17.66L85.28-17.66L85.28-17.66Q89.34-20.48 96.96-20.48L96.96-20.48L101.95-20.48L101.95-23.23L101.95-23.23Q101.95-26.82 99.90-28.38L99.90-28.38L99.90-28.38Q97.86-29.95 93.95-29.95L93.95-29.95L93.95-29.95Q90.11-29.95 85.18-28.22L85.18-28.22L83.71-32.32L83.71-32.32Q89.66-34.43 94.78-34.43L94.78-34.43L94.78-34.43Q100.93-34.43 104.16-31.55L104.16-31.55L104.16-31.55Q107.39-28.67 107.39-23.55L107.39-23.55L107.39-7.36ZM93.44-3.33L93.44-3.33Q95.94-3.33 98.21-4.61L98.21-4.61L98.21-4.61Q100.48-5.89 101.95-8.13L101.95-8.13L101.95-16.77L97.09-16.77L97.09-16.77Q91.71-16.77 89.34-14.98L89.34-14.98L89.34-14.98Q86.98-13.18 86.98-9.73L86.98-9.73L86.98-9.73Q86.98-3.33 93.44-3.33L93.44-3.33ZM136.90-3.90L136.90-3.90Q141.31-3.90 145.66-6.85L145.66-6.85L148.22-3.33L148.22-3.33Q146.11-1.47 142.98-0.38L142.98-0.38L142.98-0.38Q139.84 0.70 136.90 0.70L136.90 0.70L136.90 0.70Q129.41 0.70 125.22-4L125.22-4L125.22-4Q121.02-8.70 121.02-16.70L121.02-16.70L121.02-16.70Q121.02-21.76 122.91-25.79L122.91-25.79L122.91-25.79Q124.80-29.82 128.38-32.13L128.38-32.13L128.38-32.13Q131.97-34.43 136.90-34.43L136.90-34.43L136.90-34.43Q143.42-34.43 148.16-30.46L148.16-30.46L145.54-26.94L145.54-26.94Q141.12-29.89 136.83-29.89L136.83-29.89L136.83-29.89Q132.29-29.89 129.57-26.53L129.57-26.53L129.57-26.53Q126.85-23.17 126.85-16.70L126.85-16.70L126.85-16.70Q126.85-10.24 129.57-7.07L129.57-7.07L129.57-7.07Q132.29-3.90 136.90-3.90L136.90-3.90ZM186.82-1.73L186.82-1.73Q185.09-0.58 182.62 0.06L182.62 0.06L182.62 0.06Q180.16 0.70 177.73 0.70L177.73 0.70L177.73 0.70Q172.42 0.70 169.41-2.08L169.41-2.08L169.41-2.08Q166.40-4.86 166.40-9.41L166.40-9.41L166.40-29.50L158.66-29.50L158.66-33.73L166.40-33.73L166.40-41.34L171.78-41.98L171.78-33.73L183.49-33.73L182.78-29.50L171.78-29.50L171.78-9.47L171.78-9.47Q171.78-6.59 173.31-5.18L173.31-5.18L173.31-5.18Q174.85-3.78 178.24-3.78L178.24-3.78L178.24-3.78Q181.70-3.78 184.70-5.38L184.70-5.38L186.82-1.73ZM254.34-4.35L263.49-4.35L263.49 0L238.08 0L238.08-4.35L248.90-4.35L248.90-38.21L238.85-32.13L236.48-35.90L249.60-44.10L254.34-44.10L254.34-4.35ZM301.18-33.60L301.18-33.60Q301.18-30.46 299.26-28.10L299.26-28.10L299.26-28.10Q297.34-25.73 293.57-23.62L293.57-23.62L293.57-23.62Q298.05-21.76 300.54-18.75L300.54-18.75L300.54-18.75Q303.04-15.74 303.04-11.84L303.04-11.84L303.04-11.84Q303.04-8.26 301.18-5.38L301.18-5.38L301.18-5.38Q299.33-2.50 295.87-0.90L295.87-0.90L295.87-0.90Q292.42 0.70 287.87 0.70L287.87 0.70L287.87 0.70Q283.26 0.70 279.87-0.93L279.87-0.93L279.87-0.93Q276.48-2.56 274.72-5.38L274.72-5.38L274.72-5.38Q272.96-8.19 272.96-11.71L272.96-11.71L272.96-11.71Q272.96-19.07 281.86-23.23L281.86-23.23L281.86-23.23Q278.21-24.96 276.51-27.30L276.51-27.30L276.51-27.30Q274.82-29.63 274.82-33.28L274.82-33.28L274.82-33.28Q274.82-37.06 276.80-39.68L276.80-39.68L276.80-39.68Q278.78-42.30 281.82-43.55L281.82-43.55L281.82-43.55Q284.86-44.80 288-44.80L288-44.80L288-44.80Q291.39-44.80 294.40-43.58L294.40-43.58L294.40-43.58Q297.41-42.37 299.30-39.84L299.30-39.84L299.30-39.84Q301.18-37.31 301.18-33.60L301.18-33.60ZM280.06-33.22L280.06-33.22Q280.06-30.78 281.18-29.34L281.18-29.34L281.18-29.34Q282.30-27.90 284.16-27.04L284.16-27.04L284.16-27.04Q286.02-26.18 289.79-24.96L289.79-24.96L289.79-24.96Q293.06-26.88 294.50-28.70L294.50-28.70L294.50-28.70Q295.94-30.53 295.94-33.34L295.94-33.34L295.94-33.34Q295.94-36.67 293.86-38.62L293.86-38.62L293.86-38.62Q291.78-40.58 288-40.58L288-40.58L288-40.58Q284.22-40.58 282.14-38.66L282.14-38.66L282.14-38.66Q280.06-36.74 280.06-33.22L280.06-33.22ZM297.34-11.71L297.34-11.71Q297.34-14.53 295.94-16.29L295.94-16.29L295.94-16.29Q294.53-18.05 292.26-19.07L292.26-19.07L292.26-19.07Q289.98-20.10 285.50-21.70L285.50-21.70L285.50-21.70Q278.66-18.50 278.66-11.71L278.66-11.71L278.66-11.71Q278.66-7.94 281.02-5.79L281.02-5.79L281.02-5.79Q283.39-3.65 287.87-3.65L287.87-3.65L287.87-3.65Q292.35-3.65 294.85-5.89L294.85-5.89L294.85-5.89Q297.34-8.13 297.34-11.71L297.34-11.71Z" fill="none" stroke="#fff" stroke-width="2.1"></path></g></g></g><style>text {
  font-size: 64px;
  font-family: Arial Black;
  dominant-baseline: central;
  text-anchor: middle;
}</style></svg>